<svg id="svg" version="1.1" xmlns="http://www.w3.org/2000/svg" xmlns:xlink="http://www.w3.org/1999/xlink" width="400" height="499.3255671367259" viewBox="0, 0, 400,499.3255671367259"><g id="svgg"><path id="path0" d="M0.245 10.546 L 0.245 21.091 85.101 21.091 L 169.957 21.091 169.957 34.959 L 169.957 48.827 169.037 48.640 C 166.333 48.091,163.162 48.775,161.059 50.362 C 160.222 50.993,140.132 75.629,139.306 77.036 C 139.122 77.350,139.643 77.259,141.824 76.597 C 151.103 73.777,159.797 73.444,163.718 75.758 C 164.197 76.041,164.634 76.272,164.688 76.272 C 164.743 76.272,165.923 74.865,167.311 73.145 L 169.834 70.018 169.896 116.848 C 169.930 142.604,169.875 163.751,169.774 163.841 C 169.672 163.931,167.768 164.951,165.543 166.107 L 161.496 168.210 147.620 158.468 C 139.989 153.110,133.312 148.369,132.783 147.932 C 131.345 146.747,130.502 146.506,115.880 143.102 C 108.461 141.376,102.315 139.897,102.222 139.816 C 102.129 139.735,103.214 138.690,104.633 137.494 C 106.052 136.297,107.121 135.244,107.009 135.153 C 106.897 135.062,105.952 134.348,104.909 133.565 C 101.245 130.818,97.762 126.536,95.757 122.313 C 95.180 121.099,94.758 120.482,94.578 120.593 C 93.775 121.088,75.034 137.167,74.258 138.028 C 72.432 140.053,72.550 139.607,62.511 182.266 C 57.232 204.699,52.750 223.771,52.552 224.647 C 51.854 227.740,51.864 227.786,60.445 259.868 L 68.454 289.816 61.300 327.066 C 54.225 363.906,54.148 364.343,54.271 366.769 C 54.982 380.760,73.342 385.676,80.966 373.917 C 82.581 371.425,82.779 370.521,90.533 330.227 C 99.560 283.316,98.926 290.383,95.319 276.885 C 93.895 271.557,92.661 266.910,92.577 266.558 C 92.434 265.966,92.493 265.909,93.371 265.791 C 95.363 265.524,97.645 264.224,111.041 255.723 C 118.631 250.906,124.922 246.965,125.020 246.966 C 125.119 246.966,125.664 247.646,126.233 248.476 L 127.267 249.985 119.979 254.593 C 115.881 257.185,112.558 259.449,112.386 259.766 C 111.748 260.946,105.881 297.950,106.057 299.687 C 107.622 315.170,128.970 318.058,134.370 303.519 C 135.154 301.409,147.442 227.454,147.476 224.647 C 147.617 212.721,134.090 205.751,124.265 212.688 C 123.887 212.956,123.519 213.117,123.448 213.046 C 123.346 212.944,131.743 176.672,132.704 173.064 C 133.026 171.854,131.906 171.191,144.465 180.021 C 159.853 190.840,159.849 190.839,166.790 187.359 C 168.393 186.556,169.761 185.898,169.831 185.898 C 169.900 185.898,169.957 199.307,169.957 215.696 L 169.957 245.494 171.796 245.494 L 173.636 245.494 173.637 214.654 L 173.637 183.814 187.645 176.579 C 203.279 168.504,203.464 168.385,204.962 165.352 C 207.837 159.535,204.266 152.687,197.761 151.541 C 194.771 151.014,194.234 151.227,180.319 158.431 L 173.636 161.891 173.636 113.566 L 173.636 65.240 174.443 64.182 C 177.251 60.504,177.224 55.594,174.375 51.998 L 173.636 51.064 173.636 36.078 L 173.636 21.091 240.466 21.091 L 307.296 21.091 307.296 94.501 L 307.296 167.911 306.052 168.494 C 303.077 169.887,300.923 173.157,300.725 176.581 C 300.565 179.348,301.000 180.483,304.345 186.028 L 307.296 190.919 307.296 199.339 C 307.296 207.241,307.270 207.751,306.867 207.636 C 303.322 206.626,295.680 206.520,293.618 207.451 C 285.546 211.099,298.198 222.891,316.943 229.190 C 318.674 229.772,320.155 230.312,320.233 230.390 C 320.902 231.059,311.812 230.300,307.212 229.303 C 304.395 228.693,304.687 228.552,304.072 230.818 C 301.640 239.768,304.893 250.726,311.949 257.354 C 328.033 272.464,354.372 263.436,357.973 241.580 C 361.297 221.406,340.683 204.302,321.635 211.428 L 320.292 211.931 317.779 210.958 C 316.397 210.423,314.301 209.674,313.121 209.295 L 310.975 208.605 310.989 202.831 C 310.999 198.839,311.081 197.171,311.253 197.425 C 311.390 197.627,312.846 200.007,314.488 202.713 L 317.474 207.634 318.920 207.052 C 324.284 204.894,331.010 204.267,336.831 205.384 C 337.901 205.589,338.822 205.711,338.878 205.655 C 339.112 205.421,318.161 171.313,317.167 170.311 C 315.945 169.079,313.611 167.844,312.065 167.612 L 310.975 167.449 310.975 94.270 L 310.975 21.091 313.673 21.091 L 316.370 21.091 316.370 10.546 L 316.370 0.000 158.308 0.000 L 0.245 0.000 0.245 10.546 M151.170 78.352 C 146.840 79.014,140.658 80.767,136.269 82.578 L 134.586 83.273 132.540 82.589 C 110.230 75.126,89.342 98.144,98.826 119.740 C 109.144 143.233,143.387 140.867,150.447 116.173 C 151.827 111.348,151.686 102.064,150.211 100.590 C 150.153 100.532,148.916 100.825,147.463 101.241 C 142.475 102.668,138.341 103.262,133.667 103.225 C 129.423 103.191,128.802 102.974,131.330 102.409 C 149.452 98.356,167.587 85.486,162.948 79.972 C 161.507 78.260,156.384 77.556,151.170 78.352 M362.477 244.809 C 362.477 248.110,357.986 256.109,353.714 260.418 C 352.329 261.815,351.196 263.003,351.196 263.059 C 351.196 263.115,351.474 263.603,351.815 264.143 C 352.261 264.849,352.347 265.152,352.122 265.226 C 351.950 265.282,344.635 266.942,335.868 268.915 L 319.926 272.502 307.787 277.254 C 301.110 279.867,292.411 283.274,288.456 284.826 L 281.265 287.646 249.952 282.227 C 214.918 276.163,217.350 276.449,214.145 278.017 C 206.459 281.777,207.323 293.285,215.485 295.875 C 216.366 296.154,274.912 306.392,281.422 307.405 C 283.200 307.682,284.961 307.096,299.535 301.382 C 307.474 298.269,314.056 295.816,314.162 295.930 C 314.788 296.603,330.886 358.832,330.539 359.236 C 330.339 359.467,322.330 368.339,312.739 378.950 C 291.587 402.353,292.303 401.435,291.606 406.032 C 291.274 408.215,289.559 468.264,289.707 472.471 C 290.242 487.609,309.404 493.087,317.579 480.439 C 320.035 476.639,319.945 477.631,320.908 443.813 L 321.745 414.419 323.913 412.053 C 325.106 410.752,331.785 403.378,338.754 395.666 C 345.724 387.954,351.559 381.562,351.721 381.462 C 352.089 381.235,352.667 379.847,346.428 394.170 C 339.975 408.985,339.607 410.419,341.029 415.205 C 341.617 417.184,370.690 480.046,371.859 481.865 C 379.684 494.046,398.842 488.754,399.688 474.179 C 399.909 470.362,400.050 470.710,385.678 439.628 C 378.448 423.993,372.532 411.066,372.532 410.901 C 372.532 410.736,377.790 398.532,384.217 383.780 C 390.644 369.028,396.125 356.297,396.398 355.487 C 397.187 353.149,397.117 348.974,396.246 346.467 C 395.882 345.418,390.999 327.208,385.395 306.001 C 379.791 284.794,375.031 266.891,374.816 266.217 C 374.602 265.543,374.242 264.434,374.016 263.753 C 373.386 261.850,362.477 243.942,362.477 244.809 M145.821 259.657 C 145.744 260.028,144.136 269.689,142.249 281.127 C 140.362 292.566,138.652 302.563,138.450 303.345 C 137.449 307.208,134.878 310.946,131.427 313.557 C 130.834 314.005,130.749 314.324,130.253 317.964 C 129.959 320.123,129.655 322.247,129.577 322.685 L 129.437 323.483 112.576 323.483 L 95.716 323.483 95.191 326.119 C 94.902 327.569,94.666 328.948,94.666 329.185 C 94.666 329.589,95.635 329.614,111.588 329.614 C 126.828 329.614,128.510 329.652,128.510 330.000 C 128.510 330.383,121.049 383.447,120.780 384.979 L 120.640 385.776 84.967 385.776 C 62.394 385.776,49.295 385.689,49.295 385.541 C 49.295 385.411,49.898 382.703,50.636 379.523 L 51.977 373.739 51.205 371.480 C 49.605 366.801,49.352 368.613,57.475 326.548 L 64.532 290.006 63.441 285.960 C 62.841 283.734,62.288 282.078,62.212 282.281 C 62.054 282.699,12.753 496.439,12.753 496.702 C 12.753 496.854,23.530 496.964,23.553 496.812 C 23.558 496.778,25.795 487.094,28.524 475.291 L 33.486 453.832 72.311 453.770 L 111.137 453.708 111.000 454.383 C 110.738 455.673,104.698 498.893,104.770 498.953 C 104.871 499.036,115.368 498.305,115.476 498.207 C 115.524 498.165,122.832 446.667,131.717 383.767 C 140.601 320.868,147.933 269.047,148.011 268.608 L 148.152 267.811 158.196 267.811 L 168.240 267.811 168.240 263.397 L 168.240 258.982 157.101 258.982 L 145.962 258.982 145.821 259.657 M307.296 266.567 C 307.296 270.219,307.345 273.207,307.405 273.207 C 307.464 273.207,308.292 272.918,309.244 272.565 L 310.975 271.924 310.970 267.599 L 310.966 263.274 309.131 261.601 L 307.296 259.928 307.296 266.567 M105.579 263.716 C 104.500 264.410,102.624 265.616,101.410 266.396 L 99.203 267.813 103.120 267.751 L 107.036 267.689 107.339 265.849 C 107.506 264.838,107.707 263.651,107.787 263.213 C 107.971 262.196,107.923 262.207,105.579 263.716 M157.209 271.674 C 157.211 271.775,159.896 283.473,163.175 297.670 L 169.138 323.483 156.587 323.483 L 144.037 323.483 143.737 325.996 C 143.573 327.379,143.378 328.758,143.305 329.062 L 143.172 329.614 156.871 329.615 L 170.570 329.617 176.933 357.267 C 180.432 372.475,183.342 385.110,183.399 385.345 C 183.497 385.750,182.186 385.777,159.383 385.836 L 135.263 385.898 134.971 387.983 C 134.810 389.129,134.622 390.426,134.553 390.865 L 134.427 391.662 159.672 391.662 C 173.557 391.662,184.917 391.708,184.917 391.764 C 184.917 391.821,187.787 404.301,191.294 419.497 C 194.801 434.694,197.670 447.284,197.670 447.475 C 197.670 447.774,192.652 447.823,162.120 447.823 L 126.570 447.823 126.436 448.620 C 126.075 450.770,125.816 452.660,125.814 453.157 L 125.812 453.708 162.515 453.770 L 199.218 453.832 204.169 475.291 L 209.120 496.750 214.554 496.816 C 217.543 496.853,219.988 496.834,219.988 496.775 C 219.988 496.610,168.245 272.404,168.095 271.919 C 167.955 271.468,157.198 271.226,157.209 271.674 M308.829 301.840 L 307.296 302.469 307.296 340.934 C 307.296 362.090,307.332 379.399,307.375 379.399 C 307.419 379.399,308.247 378.469,309.215 377.332 L 310.975 375.265 310.975 338.603 C 310.975 318.439,310.908 301.766,310.826 301.553 C 310.644 301.080,310.708 301.070,308.829 301.840 M98.245 310.294 C 97.314 315.187,96.502 319.329,96.441 319.497 C 96.356 319.733,97.081 319.804,99.561 319.804 C 102.521 319.804,102.782 319.768,102.670 319.375 C 102.602 319.139,102.036 315.193,101.411 310.607 C 100.786 306.021,100.199 302.073,100.106 301.833 C 100.009 301.582,99.222 305.162,98.245 310.294 M93.941 333.722 C 93.947 333.958,95.468 344.856,97.321 357.940 L 100.690 381.729 106.016 381.795 C 110.188 381.847,111.345 381.794,111.352 381.550 C 111.357 381.379,109.843 370.451,107.987 357.265 L 104.613 333.292 99.272 333.292 C 94.344 333.292,93.931 333.326,93.941 333.722 M119.745 392.336 C 119.693 392.707,117.912 405.316,115.789 420.356 L 111.929 447.701 73.500 447.763 C 36.831 447.822,35.071 447.805,35.071 447.390 C 35.071 447.080,46.122 398.802,47.701 392.213 L 47.833 391.662 83.837 391.662 L 119.841 391.662 119.745 392.336 M102.770 396.137 C 102.776 396.441,104.191 406.615,105.914 418.747 L 109.047 440.805 111.729 421.828 L 114.411 402.851 113.931 399.218 L 113.452 395.586 108.106 395.586 L 102.759 395.586 102.770 396.137 M277.227 451.948 C 267.276 462.380,267.187 462.465,265.792 462.868 C 264.526 463.233,262.032 463.274,240.960 463.274 C 228.076 463.274,217.535 463.335,217.535 463.410 C 217.535 463.484,217.710 464.312,217.923 465.249 L 218.310 466.953 241.475 466.953 L 264.640 466.953 275.607 463.494 C 281.638 461.591,286.650 459.963,286.744 459.876 C 286.935 459.700,287.546 441.726,287.368 441.547 C 287.306 441.485,282.742 446.166,277.227 451.948 M123.533 469.283 C 123.163 470.931,119.424 498.169,119.550 498.295 C 119.680 498.426,127.835 499.086,127.956 498.976 C 127.988 498.946,127.043 492.087,125.856 483.734 C 124.425 473.663,123.642 468.795,123.533 469.283 " stroke="none" fill="#c47c34" fill-rule="evenodd"></path><path id="path1" d="M0.113 10.546 C 0.113 16.413,0.145 18.814,0.184 15.880 C 0.223 12.946,0.223 8.145,0.184 5.212 C 0.145 2.278,0.113 4.678,0.113 10.546 M169.655 34.948 C 169.619 42.569,169.672 48.804,169.773 48.804 C 169.874 48.804,169.957 42.569,169.957 34.948 C 169.957 27.327,169.904 21.091,169.838 21.091 C 169.773 21.091,169.690 27.327,169.655 34.948 M306.990 94.543 C 306.956 134.942,307.011 167.995,307.112 167.995 C 307.213 167.995,307.296 134.942,307.296 94.543 C 307.296 54.145,307.241 21.091,307.174 21.091 C 307.107 21.091,307.025 54.145,306.990 94.543 M149.359 64.007 C 137.946 78.266,138.333 77.754,138.994 77.724 C 139.232 77.714,139.292 77.651,139.128 77.585 C 138.955 77.515,143.286 71.901,149.615 63.993 C 155.545 56.584,160.342 50.521,160.274 50.521 C 160.207 50.521,155.295 56.590,149.359 64.007 M176.655 58.246 C 176.656 59.056,176.702 59.357,176.757 58.917 C 176.811 58.476,176.810 57.814,176.754 57.445 C 176.698 57.077,176.653 57.437,176.655 58.246 M175.523 62.664 C 175.299 63.134,175.166 63.519,175.228 63.519 C 175.395 63.519,176.140 62.018,176.028 61.905 C 175.974 61.852,175.747 62.194,175.523 62.664 M174.583 64.194 C 173.877 65.046,173.578 65.481,173.699 65.481 C 173.767 65.481,174.117 65.095,174.478 64.623 C 175.146 63.747,175.227 63.416,174.583 64.194 M167.607 72.882 C 166.404 74.390,165.265 75.852,165.076 76.132 C 164.388 77.147,165.307 76.090,167.485 73.361 L 169.711 70.572 169.773 117.260 L 169.836 163.948 169.896 117.045 C 169.930 91.248,169.921 70.141,169.876 70.141 C 169.831 70.141,168.811 71.375,167.607 72.882 M152.851 74.479 C 153.087 74.541,153.473 74.541,153.709 74.479 C 153.945 74.418,153.752 74.367,153.280 74.367 C 152.808 74.367,152.615 74.418,152.851 74.479 M154.820 77.924 C 155.465 77.975,156.458 77.974,157.028 77.923 C 157.597 77.871,157.069 77.830,155.855 77.831 C 154.641 77.832,154.176 77.874,154.820 77.924 M123.060 81.112 C 123.637 81.164,124.520 81.163,125.022 81.110 C 125.524 81.058,125.052 81.015,123.973 81.016 C 122.894 81.017,122.483 81.060,123.060 81.112 M111.281 84.014 C 110.641 84.347,110.116 84.675,110.116 84.742 C 110.116 84.852,112.544 83.705,112.794 83.478 C 113.097 83.201,112.300 83.484,111.281 84.014 M160.405 87.879 C 158.135 90.324,158.126 90.337,159.994 88.535 C 161.591 86.993,163.094 85.295,162.800 85.365 C 162.757 85.375,161.680 86.506,160.405 87.879 M104.342 89.086 L 103.372 90.129 104.414 89.159 C 105.384 88.258,105.569 88.044,105.384 88.044 C 105.344 88.044,104.875 88.513,104.342 89.086 M102.365 91.339 C 101.864 91.938,101.245 92.793,100.987 93.240 C 100.588 93.933,100.585 93.963,100.965 93.443 C 101.210 93.108,101.880 92.253,102.455 91.543 C 103.030 90.832,103.449 90.251,103.387 90.251 C 103.325 90.251,102.865 90.741,102.365 91.339 M144.697 97.977 C 144.359 98.169,144.194 98.327,144.329 98.327 C 144.464 98.327,144.850 98.169,145.187 97.977 C 145.524 97.784,145.690 97.626,145.555 97.626 C 145.420 97.626,145.034 97.784,144.697 97.977 M132.628 103.186 C 133.476 103.234,134.800 103.234,135.571 103.185 C 136.341 103.137,135.647 103.097,134.028 103.098 C 132.410 103.098,131.779 103.138,132.628 103.186 M96.439 105.702 C 96.439 106.174,96.490 106.367,96.552 106.131 C 96.613 105.895,96.613 105.509,96.552 105.273 C 96.490 105.037,96.439 105.230,96.439 105.702 M151.637 108.645 C 151.637 109.387,151.683 109.690,151.739 109.319 C 151.795 108.948,151.795 108.342,151.739 107.971 C 151.683 107.600,151.637 107.903,151.637 108.645 M94.157 120.601 L 93.562 121.275 94.194 120.721 C 94.541 120.417,94.917 120.251,95.030 120.353 C 95.143 120.456,95.156 120.402,95.059 120.233 C 94.826 119.829,94.843 119.823,94.157 120.601 M92.566 121.950 L 91.845 122.747 92.643 122.026 C 93.081 121.630,93.440 121.272,93.440 121.229 C 93.440 121.040,93.237 121.207,92.566 121.950 M90.129 124.005 L 88.657 125.374 90.190 124.097 C 91.523 122.987,91.905 122.606,91.662 122.630 C 91.628 122.633,90.938 123.252,90.129 124.005 M96.750 124.096 C 96.960 124.500,97.186 124.831,97.254 124.831 C 97.321 124.831,97.205 124.500,96.996 124.096 C 96.786 123.691,96.560 123.360,96.493 123.360 C 96.425 123.360,96.541 123.691,96.750 124.096 M101.528 125.069 C 101.813 125.470,102.171 125.875,102.324 125.970 C 102.478 126.064,102.294 125.736,101.916 125.241 C 101.096 124.166,100.787 124.030,101.528 125.069 M87.661 126.119 L 86.941 126.916 87.738 126.196 C 88.176 125.800,88.535 125.441,88.535 125.399 C 88.535 125.209,88.332 125.376,87.661 126.119 M144.798 126.855 C 143.713 128.039,143.135 128.755,143.263 128.755 C 143.325 128.755,143.901 128.148,144.541 127.406 C 145.805 125.943,145.982 125.563,144.798 126.855 M104.353 128.265 C 105.426 129.344,106.359 130.227,106.426 130.227 C 106.494 130.227,105.671 129.344,104.598 128.265 C 103.526 127.186,102.593 126.303,102.525 126.303 C 102.458 126.303,103.280 127.186,104.353 128.265 M85.224 128.174 L 83.752 129.543 85.285 128.267 C 86.618 127.157,87.000 126.776,86.757 126.799 C 86.723 126.803,86.033 127.421,85.224 128.174 M99.218 127.768 C 99.900 128.749,102.026 131.024,103.127 131.953 C 104.207 132.863,104.177 132.815,102.874 131.545 C 102.061 130.753,100.847 129.494,100.177 128.749 C 99.506 128.003,99.075 127.562,99.218 127.768 M141.986 129.675 L 141.140 130.595 142.060 129.750 C 142.916 128.963,143.093 128.755,142.905 128.755 C 142.864 128.755,142.450 129.169,141.986 129.675 M82.756 130.288 L 82.036 131.085 82.833 130.365 C 83.576 129.693,83.742 129.491,83.553 129.491 C 83.511 129.491,83.152 129.850,82.756 130.288 M79.568 132.986 L 78.847 133.783 79.644 133.063 C 80.387 132.391,80.554 132.189,80.365 132.189 C 80.322 132.189,79.964 132.548,79.568 132.986 M77.131 135.041 L 75.659 136.410 77.192 135.133 C 78.525 134.024,78.907 133.643,78.663 133.666 C 78.630 133.670,77.940 134.288,77.131 135.041 M112.569 134.028 C 112.906 134.221,113.292 134.379,113.427 134.379 C 113.562 134.379,113.397 134.221,113.059 134.028 C 112.722 133.835,112.336 133.678,112.201 133.678 C 112.066 133.678,112.232 133.835,112.569 134.028 M107.235 135.100 C 107.269 135.218,106.800 135.778,106.193 136.347 L 105.089 137.379 106.370 136.345 C 107.075 135.776,107.593 135.215,107.521 135.099 C 107.351 134.823,107.156 134.825,107.235 135.100 M120.723 136.282 C 120.960 136.344,121.346 136.344,121.582 136.282 C 121.818 136.220,121.625 136.170,121.153 136.170 C 120.681 136.170,120.487 136.220,120.723 136.282 M126.364 136.282 C 126.600 136.344,126.987 136.344,127.223 136.282 C 127.459 136.220,127.265 136.170,126.793 136.170 C 126.321 136.170,126.128 136.220,126.364 136.282 M74.542 137.278 L 73.697 138.197 74.617 137.352 C 75.473 136.566,75.649 136.358,75.462 136.358 C 75.421 136.358,75.007 136.772,74.542 137.278 M104.092 138.136 L 103.372 138.933 104.169 138.213 C 104.912 137.541,105.079 137.339,104.890 137.339 C 104.847 137.339,104.489 137.698,104.092 138.136 M102.641 139.296 C 102.205 139.777,102.722 140.401,103.178 139.944 C 103.262 139.860,103.130 139.792,102.885 139.792 C 102.453 139.792,102.453 139.774,102.882 139.301 C 103.126 139.031,103.270 138.811,103.203 138.811 C 103.135 138.811,102.883 139.029,102.641 139.296 M134.396 148.955 C 134.396 149.022,134.727 149.313,135.132 149.601 C 135.536 149.890,135.868 150.070,135.868 150.003 C 135.868 149.935,135.536 149.644,135.132 149.356 C 134.727 149.068,134.396 148.888,134.396 148.955 M136.849 150.672 C 136.849 150.739,137.180 151.030,137.584 151.318 C 137.989 151.606,138.320 151.787,138.320 151.719 C 138.320 151.652,137.989 151.361,137.584 151.073 C 137.180 150.785,136.849 150.604,136.849 150.672 M203.304 154.384 C 204.034 155.193,204.680 155.910,204.740 155.978 C 204.800 156.045,204.732 155.880,204.589 155.610 C 204.446 155.340,203.800 154.623,203.154 154.016 L 201.978 152.912 203.304 154.384 M141.018 153.615 C 141.018 153.682,141.349 153.973,141.754 154.261 C 142.158 154.549,142.489 154.730,142.489 154.662 C 142.489 154.595,142.158 154.304,141.754 154.016 C 141.349 153.728,141.018 153.547,141.018 153.615 M186.818 154.767 C 185.773 155.301,184.917 155.794,184.917 155.861 C 184.917 155.928,185.800 155.539,186.879 154.997 C 187.958 154.454,188.841 153.957,188.841 153.891 C 188.841 153.725,188.933 153.686,186.818 154.767 M143.470 155.331 C 143.470 155.399,143.801 155.690,144.206 155.978 C 144.611 156.266,144.942 156.447,144.942 156.379 C 144.942 156.312,144.611 156.021,144.206 155.733 C 143.801 155.445,143.470 155.264,143.470 155.331 M145.923 157.048 C 145.923 157.116,146.254 157.407,146.658 157.695 C 147.063 157.983,147.394 158.163,147.394 158.096 C 147.394 158.028,147.063 157.738,146.658 157.449 C 146.254 157.161,145.923 156.981,145.923 157.048 M179.706 158.446 C 178.660 158.980,177.805 159.472,177.805 159.540 C 177.805 159.607,178.688 159.218,179.767 158.676 C 180.846 158.133,181.729 157.635,181.729 157.569 C 181.729 157.404,181.821 157.364,179.706 158.446 M148.375 158.765 C 148.375 158.832,148.706 159.123,149.111 159.411 C 149.516 159.700,149.847 159.880,149.847 159.813 C 149.847 159.745,149.516 159.454,149.111 159.166 C 148.706 158.878,148.375 158.697,148.375 158.765 M206.087 161.128 C 206.087 162.005,206.132 162.364,206.186 161.925 C 206.240 161.487,206.240 160.769,206.186 160.331 C 206.132 159.893,206.087 160.251,206.087 161.128 M154.997 163.425 C 154.997 163.492,155.328 163.783,155.733 164.071 C 156.137 164.359,156.468 164.540,156.468 164.472 C 156.468 164.405,156.137 164.114,155.733 163.826 C 155.328 163.538,154.997 163.357,154.997 163.425 M165.481 165.803 C 164.436 166.338,163.581 166.830,163.581 166.897 C 163.581 166.964,164.464 166.576,165.543 166.033 C 166.622 165.491,167.505 164.993,167.505 164.927 C 167.505 164.762,167.596 164.722,165.481 165.803 M204.953 165.668 C 204.729 166.139,204.596 166.524,204.657 166.524 C 204.825 166.524,205.570 165.022,205.458 164.910 C 205.404 164.857,205.177 165.198,204.953 165.668 M157.449 165.141 C 157.449 165.209,157.781 165.500,158.185 165.788 C 158.590 166.076,158.921 166.257,158.921 166.189 C 158.921 166.122,158.590 165.831,158.185 165.543 C 157.781 165.254,157.449 165.074,157.449 165.141 M159.902 166.858 C 159.902 166.926,160.233 167.216,160.638 167.505 C 161.042 167.793,161.373 167.973,161.373 167.906 C 161.373 167.838,161.042 167.547,160.638 167.259 C 160.233 166.971,159.902 166.791,159.902 166.858 M202.845 168.277 C 201.982 169.097,201.485 169.653,201.742 169.513 C 202.201 169.262,204.748 166.761,204.528 166.777 C 204.466 166.782,203.708 167.457,202.845 168.277 M303.238 170.264 L 302.269 171.306 303.311 170.336 C 304.280 169.435,304.466 169.221,304.280 169.221 C 304.240 169.221,303.771 169.690,303.238 170.264 M317.229 170.202 C 317.756 170.742,318.242 171.183,318.309 171.183 C 318.377 171.183,318.001 170.742,317.474 170.202 C 316.947 169.663,316.461 169.221,316.393 169.221 C 316.326 169.221,316.702 169.663,317.229 170.202 M198.590 170.953 C 197.544 171.488,196.689 171.980,196.689 172.047 C 196.689 172.115,197.572 171.726,198.651 171.183 C 199.730 170.641,200.613 170.143,200.613 170.077 C 200.613 169.912,200.705 169.872,198.590 170.953 M134.151 172.989 C 134.151 173.057,134.482 173.348,134.887 173.636 C 135.291 173.924,135.622 174.105,135.622 174.037 C 135.622 173.970,135.291 173.679,134.887 173.391 C 134.482 173.102,134.151 172.922,134.151 172.989 M191.478 174.632 C 190.432 175.166,189.577 175.659,189.577 175.726 C 189.577 175.793,190.460 175.405,191.539 174.862 C 192.618 174.319,193.501 173.822,193.501 173.756 C 193.501 173.590,193.593 173.551,191.478 174.632 M136.603 174.706 C 136.603 174.773,136.934 175.064,137.339 175.353 C 137.744 175.641,138.075 175.821,138.075 175.754 C 138.075 175.686,137.744 175.395,137.339 175.107 C 136.934 174.819,136.603 174.639,136.603 174.706 M300.486 176.088 C 300.486 176.560,300.537 176.754,300.598 176.517 C 300.660 176.281,300.660 175.895,300.598 175.659 C 300.537 175.423,300.486 175.616,300.486 176.088 M139.056 176.423 C 139.056 176.490,139.387 176.781,139.792 177.069 C 140.196 177.357,140.527 177.538,140.527 177.471 C 140.527 177.403,140.196 177.112,139.792 176.824 C 139.387 176.536,139.056 176.355,139.056 176.423 M184.365 178.311 C 183.320 178.845,182.465 179.338,182.465 179.405 C 182.465 179.472,183.348 179.083,184.427 178.541 C 185.506 177.998,186.389 177.500,186.389 177.434 C 186.389 177.269,186.481 177.229,184.365 178.311 M300.486 178.296 C 300.486 178.768,300.537 178.961,300.598 178.725 C 300.660 178.489,300.660 178.102,300.598 177.866 C 300.537 177.630,300.486 177.823,300.486 178.296 M141.508 178.140 C 141.508 178.207,141.839 178.498,142.244 178.786 C 142.649 179.074,142.980 179.255,142.980 179.187 C 142.980 179.120,142.649 178.829,142.244 178.541 C 141.839 178.253,141.508 178.072,141.508 178.140 M145.677 181.082 C 145.677 181.150,146.009 181.441,146.413 181.729 C 146.818 182.017,147.149 182.198,147.149 182.130 C 147.149 182.063,146.818 181.772,146.413 181.484 C 146.009 181.196,145.677 181.015,145.677 181.082 M177.253 181.989 C 176.208 182.524,175.353 183.016,175.353 183.084 C 175.353 183.151,176.235 182.762,177.315 182.219 C 178.394 181.677,179.277 181.179,179.277 181.113 C 179.277 180.948,179.368 180.908,177.253 181.989 M148.130 182.799 C 148.130 182.867,148.461 183.158,148.866 183.446 C 149.270 183.734,149.601 183.914,149.601 183.847 C 149.601 183.780,149.270 183.489,148.866 183.200 C 148.461 182.912,148.130 182.732,148.130 182.799 M150.582 184.516 C 150.582 184.583,150.914 184.874,151.318 185.162 C 151.723 185.451,152.054 185.631,152.054 185.564 C 152.054 185.496,151.723 185.205,151.318 184.917 C 150.914 184.629,150.582 184.449,150.582 184.516 M168.915 186.284 C 167.999 186.781,168.053 186.988,168.975 186.512 L 169.710 186.132 169.773 215.997 L 169.836 245.861 169.897 215.880 C 169.930 199.390,169.874 185.903,169.773 185.908 C 169.672 185.913,169.286 186.083,168.915 186.284 M153.035 186.233 C 153.035 186.300,153.366 186.591,153.771 186.879 C 154.175 187.167,154.506 187.348,154.506 187.280 C 154.506 187.213,154.175 186.922,153.771 186.634 C 153.366 186.346,153.035 186.165,153.035 186.233 M155.487 187.981 C 155.487 188.148,156.989 188.893,157.101 188.781 C 157.154 188.727,156.813 188.500,156.343 188.276 C 155.872 188.052,155.487 187.919,155.487 187.981 M160.208 189.501 C 160.445 189.562,160.831 189.562,161.067 189.501 C 161.303 189.439,161.110 189.389,160.638 189.389 C 160.166 189.389,159.972 189.439,160.208 189.501 M307.051 199.092 L 307.173 207.603 307.238 199.280 C 307.274 194.702,307.219 190.873,307.116 190.769 C 307.013 190.666,306.983 194.412,307.051 199.092 M329.792 204.959 C 330.228 205.014,331.000 205.014,331.509 204.961 C 332.018 204.908,331.662 204.864,330.717 204.863 C 329.773 204.862,329.357 204.905,329.792 204.959 M300.861 206.673 C 301.166 206.731,301.608 206.729,301.842 206.668 C 302.077 206.606,301.827 206.558,301.288 206.561 C 300.748 206.564,300.556 206.614,300.861 206.673 M131.395 209.861 C 131.700 209.919,132.141 209.917,132.376 209.856 C 132.610 209.794,132.361 209.746,131.821 209.749 C 131.281 209.752,131.090 209.802,131.395 209.861 M133.722 209.856 C 133.958 209.918,134.344 209.918,134.580 209.856 C 134.816 209.795,134.623 209.744,134.151 209.744 C 133.679 209.744,133.486 209.795,133.722 209.856 M328.084 209.861 C 328.389 209.919,328.830 209.917,329.065 209.856 C 329.299 209.794,329.050 209.746,328.510 209.749 C 327.971 209.752,327.779 209.802,328.084 209.861 M332.744 209.861 C 333.049 209.919,333.490 209.917,333.725 209.856 C 333.959 209.794,333.709 209.746,333.170 209.749 C 332.630 209.752,332.438 209.802,332.744 209.861 M125.996 211.299 C 125.045 211.815,125.153 211.993,126.119 211.502 C 127.043 211.032,127.207 210.910,126.896 210.923 C 126.772 210.929,126.367 211.098,125.996 211.299 M138.831 211.005 C 139.083 211.231,140.527 211.894,140.527 211.785 C 140.527 211.643,139.168 210.914,138.904 210.914 C 138.808 210.914,138.775 210.955,138.831 211.005 M341.631 212.017 C 341.968 212.210,342.354 212.368,342.489 212.368 C 342.624 212.368,342.459 212.210,342.121 212.017 C 341.784 211.824,341.398 211.667,341.263 211.667 C 341.128 211.667,341.294 211.824,341.631 212.017 M343.838 212.986 C 343.838 213.053,344.169 213.279,344.574 213.489 C 344.979 213.698,345.310 213.814,345.310 213.747 C 345.310 213.679,344.979 213.453,344.574 213.243 C 344.169 213.034,343.838 212.918,343.838 212.986 M143.506 214.228 C 143.998 214.797,144.703 215.719,145.072 216.276 C 145.441 216.834,145.789 217.290,145.847 217.290 C 146.118 217.290,144.936 215.638,143.838 214.483 C 143.164 213.774,143.014 213.659,143.506 214.228 M291.991 214.055 C 292.248 214.502,292.722 215.109,293.045 215.404 C 293.390 215.720,293.253 215.437,292.711 214.715 C 291.553 213.171,291.404 213.034,291.991 214.055 M348.007 215.650 C 348.007 215.692,348.366 216.051,348.804 216.447 L 349.601 217.167 348.881 216.370 C 348.210 215.627,348.007 215.461,348.007 215.650 M293.562 216.141 C 293.562 216.183,293.921 216.541,294.359 216.938 L 295.156 217.658 294.436 216.861 C 293.765 216.118,293.562 215.951,293.562 216.141 M295.279 217.612 C 295.279 217.654,295.638 218.013,296.076 218.409 L 296.873 219.129 296.153 218.332 C 295.481 217.589,295.279 217.423,295.279 217.612 M351.878 219.620 C 353.760 221.894,353.937 222.076,353.151 220.927 C 352.719 220.297,352.028 219.469,351.615 219.087 C 351.062 218.577,351.131 218.717,351.878 219.620 M303.617 223.534 C 303.617 223.601,304.059 223.882,304.598 224.157 C 305.138 224.432,305.579 224.602,305.579 224.535 C 305.579 224.467,305.138 224.187,304.598 223.912 C 304.059 223.636,303.617 223.466,303.617 223.534 M355.293 224.763 C 355.655 225.501,355.992 226.064,356.042 226.014 C 356.152 225.904,354.915 223.421,354.750 223.421 C 354.687 223.421,354.931 224.025,355.293 224.763 M308.768 226.242 C 309.105 226.434,309.491 226.592,309.626 226.592 C 309.761 226.592,309.595 226.434,309.258 226.242 C 308.921 226.049,308.535 225.891,308.400 225.891 C 308.265 225.891,308.430 226.049,308.768 226.242 M52.066 227.345 C 52.066 228.087,52.112 228.391,52.168 228.020 C 52.224 227.649,52.224 227.042,52.168 226.671 C 52.112 226.300,52.066 226.603,52.066 227.345 M318.823 230.288 C 318.544 230.468,318.652 230.527,319.266 230.530 C 319.746 230.532,320.016 230.433,319.926 230.288 C 319.736 229.980,319.300 229.980,318.823 230.288 M315.083 230.461 C 315.386 230.520,315.883 230.520,316.186 230.461 C 316.490 230.403,316.242 230.355,315.635 230.355 C 315.028 230.355,314.779 230.403,315.083 230.461 M303.184 234.948 C 303.184 235.420,303.234 235.613,303.296 235.377 C 303.358 235.141,303.358 234.755,303.296 234.519 C 303.234 234.283,303.184 234.476,303.184 234.948 M358.396 237.400 C 358.396 238.682,358.438 239.206,358.488 238.565 C 358.539 237.925,358.539 236.876,358.488 236.235 C 358.438 235.595,358.396 236.119,358.396 237.400 M303.189 239.730 C 303.191 240.270,303.242 240.462,303.300 240.157 C 303.359 239.851,303.357 239.410,303.295 239.176 C 303.234 238.941,303.186 239.191,303.189 239.730 M124.449 247.346 C 123.985 247.718,123.986 247.721,124.487 247.481 C 124.851 247.305,125.098 247.319,125.334 247.528 C 125.612 247.776,125.614 247.754,125.341 247.394 C 124.950 246.878,125.029 246.882,124.449 247.346 M119.497 250.427 C 118.661 250.962,118.391 251.322,119.129 250.916 C 119.692 250.606,120.574 249.925,120.417 249.920 C 120.349 249.918,119.936 250.146,119.497 250.427 M359.707 251.754 C 359.345 252.492,359.101 253.096,359.165 253.096 C 359.330 253.096,360.567 250.614,360.457 250.504 C 360.406 250.453,360.069 251.016,359.707 251.754 M122.931 252.389 C 122.095 252.924,121.824 253.284,122.563 252.878 C 123.126 252.568,124.007 251.887,123.850 251.882 C 123.783 251.880,123.369 252.108,122.931 252.389 M350.146 256.829 C 348.558 258.447,347.675 259.436,348.184 259.027 C 349.413 258.041,353.522 253.752,353.134 253.860 C 353.080 253.875,351.735 255.211,350.146 256.829 M357.717 255.242 C 357.219 256.018,357.069 256.351,357.382 255.982 C 358.001 255.253,358.889 253.832,358.724 253.832 C 358.668 253.832,358.215 254.467,357.717 255.242 M311.097 257.020 C 311.624 257.560,312.111 258.001,312.178 258.001 C 312.245 258.001,311.870 257.560,311.343 257.020 C 310.816 256.481,310.330 256.039,310.262 256.039 C 310.195 256.039,310.571 256.481,311.097 257.020 M355.227 258.553 L 354.506 259.350 355.303 258.630 C 356.046 257.958,356.213 257.756,356.024 257.756 C 355.982 257.756,355.623 258.115,355.227 258.553 M106.744 258.520 C 105.908 259.055,105.638 259.415,106.376 259.009 C 106.939 258.700,107.821 258.018,107.664 258.013 C 107.597 258.011,107.183 258.239,106.744 258.520 M353.635 260.392 L 352.790 261.312 353.709 260.467 C 354.215 260.002,354.629 259.588,354.629 259.547 C 354.629 259.360,354.422 259.536,353.635 260.392 M307.108 266.646 L 307.165 273.574 307.235 266.723 L 307.304 259.871 308.342 260.837 L 309.381 261.803 308.411 260.760 C 307.878 260.187,307.354 259.718,307.246 259.718 C 307.139 259.718,307.077 262.836,307.108 266.646 M316.861 261.311 C 316.861 261.475,319.834 262.958,319.943 262.848 C 319.993 262.799,319.319 262.406,318.447 261.976 C 317.575 261.546,316.861 261.247,316.861 261.311 M351.793 261.987 L 351.073 262.784 351.870 262.063 C 352.613 261.392,352.780 261.189,352.590 261.189 C 352.548 261.189,352.189 261.548,351.793 261.987 M107.518 262.208 C 107.414 262.377,107.450 262.425,107.609 262.327 C 107.762 262.233,107.919 262.398,107.981 262.719 C 108.073 263.199,108.092 263.183,108.121 262.600 C 108.155 261.910,107.832 261.700,107.518 262.208 M329.552 265.049 C 330.261 265.099,331.419 265.099,332.128 265.049 C 332.836 264.999,332.256 264.959,330.840 264.959 C 329.424 264.959,328.844 264.999,329.552 265.049 M98.674 267.872 C 98.612 267.974,100.526 268.036,102.929 268.010 C 107.375 267.963,106.919 267.868,101.693 267.753 C 100.095 267.717,98.736 267.771,98.674 267.872 M148.130 267.995 C 148.130 268.162,156.018 268.159,165.052 267.987 C 167.008 267.950,164.001 267.895,158.369 267.865 C 152.738 267.836,148.130 267.894,148.130 267.995 M217.964 276.813 C 218.268 276.872,218.765 276.872,219.068 276.813 C 219.372 276.755,219.123 276.707,218.516 276.707 C 217.909 276.707,217.661 276.755,217.964 276.813 M211.404 279.706 C 210.808 280.313,210.376 280.809,210.444 280.809 C 210.511 280.809,211.054 280.313,211.649 279.706 C 212.245 279.099,212.677 278.602,212.610 278.602 C 212.542 278.602,212.000 279.099,211.404 279.706 M208.518 286.695 C 208.518 287.167,208.568 287.361,208.630 287.124 C 208.692 286.888,208.692 286.502,208.630 286.266 C 208.568 286.030,208.518 286.223,208.518 286.695 M98.180 289.270 C 98.181 290.215,98.225 290.571,98.278 290.062 C 98.331 289.553,98.331 288.781,98.276 288.345 C 98.222 287.910,98.179 288.326,98.180 289.270 M209.197 290.220 C 209.197 290.521,210.160 292.296,210.406 292.448 C 210.535 292.528,210.352 292.066,210.000 291.422 C 209.272 290.091,209.197 289.979,209.197 290.220 M211.404 293.685 C 211.862 294.157,212.291 294.543,212.359 294.543 C 212.426 294.543,212.107 294.157,211.649 293.685 C 211.192 293.213,210.762 292.826,210.695 292.826 C 210.627 292.826,210.946 293.213,211.404 293.685 M213.366 295.154 C 213.366 295.322,214.868 296.066,214.980 295.954 C 215.033 295.901,214.692 295.674,214.221 295.450 C 213.751 295.225,213.366 295.092,213.366 295.154 M99.816 300.783 C 99.816 300.977,99.926 301.204,100.061 301.288 C 100.196 301.371,100.307 301.212,100.307 300.934 C 100.307 300.656,100.196 300.429,100.061 300.429 C 99.926 300.429,99.816 300.588,99.816 300.783 M307.051 341.018 C 307.051 365.144,307.138 379.890,307.282 379.890 C 307.409 379.890,307.591 379.762,307.687 379.606 C 307.796 379.431,307.755 379.390,307.578 379.499 C 307.362 379.633,307.308 370.282,307.356 340.911 C 307.390 319.590,307.336 302.146,307.235 302.146 C 307.134 302.146,307.051 319.638,307.051 341.018 M106.928 304.199 C 106.928 304.464,107.902 306.315,108.042 306.315 C 108.109 306.315,107.928 305.846,107.639 305.273 C 107.070 304.145,106.928 303.931,106.928 304.199 M133.710 305.217 C 133.416 305.821,133.228 306.315,133.291 306.315 C 133.457 306.315,134.448 304.323,134.337 304.212 C 134.285 304.161,134.003 304.613,133.710 305.217 M136.898 306.688 C 136.605 307.292,136.416 307.787,136.479 307.787 C 136.645 307.787,137.636 305.795,137.525 305.684 C 137.474 305.632,137.191 306.084,136.898 306.688 M108.586 307.174 C 108.867 307.578,109.738 308.516,110.520 309.258 C 111.876 310.543,111.863 310.520,110.246 308.768 C 107.980 306.312,108.002 306.332,108.586 307.174 M130.956 308.952 L 129.368 310.607 131.024 309.020 C 132.562 307.546,132.791 307.296,132.611 307.296 C 132.573 307.296,131.828 308.041,130.956 308.952 M133.522 311.527 L 132.802 312.324 133.599 311.603 C 134.037 311.207,134.396 310.849,134.396 310.806 C 134.396 310.617,134.194 310.784,133.522 311.527 M112.814 311.096 C 112.814 311.262,114.806 312.253,114.917 312.142 C 114.969 312.090,114.516 311.808,113.912 311.515 C 113.308 311.221,112.814 311.033,112.814 311.096 M127.284 311.588 C 126.677 311.913,126.267 312.184,126.374 312.190 C 126.634 312.205,128.510 311.241,128.510 311.093 C 128.510 310.930,128.520 310.926,127.284 311.588 M120.110 313.355 C 120.414 313.414,120.910 313.414,121.214 313.355 C 121.517 313.297,121.269 313.249,120.662 313.249 C 120.055 313.249,119.807 313.297,120.110 313.355 M96.137 319.865 C 96.137 319.966,97.682 320.049,99.571 320.049 C 101.459 320.049,103.004 319.966,103.004 319.865 C 103.004 319.764,101.459 319.681,99.571 319.681 C 97.682 319.681,96.137 319.764,96.137 319.865 M142.984 329.430 C 142.980 329.834,143.776 329.856,156.775 329.800 L 170.570 329.741 156.972 329.675 C 146.469 329.624,143.330 329.540,143.181 329.305 C 143.044 329.090,142.986 329.126,142.984 329.430 M111.265 329.798 L 128.231 329.862 128.337 330.412 C 128.428 330.882,128.448 330.864,128.477 330.288 L 128.510 329.614 111.404 329.673 L 94.298 329.733 111.265 329.798 M397.131 351.196 C 397.131 351.937,397.176 352.241,397.233 351.870 C 397.289 351.499,397.289 350.892,397.233 350.521 C 397.176 350.150,397.131 350.454,397.131 351.196 M330.614 358.525 C 330.603 358.711,329.646 359.898,328.486 361.161 C 327.327 362.424,326.433 363.458,326.500 363.458 C 326.841 363.458,330.868 358.769,330.760 358.500 C 330.663 358.260,330.629 358.266,330.614 358.525 M323.973 366.156 C 322.729 367.505,321.767 368.608,321.834 368.608 C 321.902 368.608,322.975 367.505,324.218 366.156 C 325.462 364.807,326.424 363.703,326.357 363.703 C 326.289 363.703,325.217 364.807,323.973 366.156 M50.349 365.910 C 50.349 366.652,50.395 366.956,50.452 366.585 C 50.508 366.214,50.508 365.607,50.452 365.236 C 50.395 364.865,50.349 365.169,50.349 365.910 M319.313 371.306 C 318.070 372.655,317.107 373.758,317.175 373.758 C 317.242 373.758,318.315 372.655,319.559 371.306 C 320.802 369.957,321.765 368.853,321.697 368.853 C 321.630 368.853,320.557 369.957,319.313 371.306 M390.475 369.477 C 390.064 370.379,390.143 370.571,390.587 369.751 C 390.794 369.369,390.918 369.009,390.862 368.953 C 390.806 368.897,390.632 369.133,390.475 369.477 M314.654 376.456 C 313.410 377.805,312.448 378.909,312.515 378.909 C 312.582 378.909,313.655 377.805,314.899 376.456 C 316.142 375.107,317.105 374.004,317.037 374.004 C 316.970 374.004,315.897 375.107,314.654 376.456 M79.581 375.904 C 78.921 376.680,78.637 377.094,78.948 376.824 C 79.540 376.312,81.044 374.494,80.877 374.494 C 80.824 374.494,80.241 375.129,79.581 375.904 M388.023 375.118 C 387.612 376.020,387.690 376.212,388.134 375.392 C 388.342 375.009,388.466 374.650,388.410 374.594 C 388.354 374.538,388.179 374.774,388.023 375.118 M58.246 376.456 C 58.911 377.131,59.509 377.682,59.577 377.682 C 59.644 377.682,59.156 377.131,58.492 376.456 C 57.827 375.782,57.229 375.230,57.161 375.230 C 57.094 375.230,57.582 375.782,58.246 376.456 M309.856 376.763 L 309.135 377.560 309.933 376.839 C 310.676 376.168,310.842 375.966,310.653 375.966 C 310.611 375.966,310.252 376.324,309.856 376.763 M77.139 377.956 C 75.851 378.924,75.730 379.085,76.718 378.518 C 77.414 378.118,78.508 377.158,78.211 377.209 C 78.156 377.218,77.674 377.554,77.139 377.956 M308.384 378.479 L 307.664 379.277 308.461 378.556 C 309.204 377.885,309.371 377.682,309.181 377.682 C 309.139 377.682,308.781 378.041,308.384 378.479 M309.994 381.606 C 308.750 382.955,307.788 384.059,307.855 384.059 C 307.923 384.059,308.995 382.955,310.239 381.606 C 311.483 380.258,312.445 379.154,312.378 379.154 C 312.310 379.154,311.238 380.258,309.994 381.606 M68.366 380.799 C 68.671 380.857,69.112 380.855,69.347 380.794 C 69.581 380.733,69.332 380.685,68.792 380.687 C 68.253 380.690,68.061 380.740,68.366 380.799 M351.051 382.138 C 350.793 382.431,350.732 382.584,350.915 382.476 C 351.172 382.326,351.211 382.414,351.088 382.863 C 350.951 383.358,350.968 383.381,351.197 383.015 C 351.346 382.777,351.406 382.483,351.330 382.361 C 351.254 382.239,351.331 382.089,351.501 382.029 C 351.670 381.968,351.744 381.848,351.664 381.761 C 351.585 381.674,351.309 381.844,351.051 382.138 M103.325 382.035 C 104.917 382.078,107.456 382.078,108.965 382.035 C 110.475 381.992,109.172 381.957,106.070 381.957 C 102.968 381.957,101.732 381.992,103.325 382.035 M349.347 384.120 L 348.130 385.408 349.418 384.191 C 350.614 383.060,350.818 382.833,350.635 382.833 C 350.596 382.833,350.016 383.412,349.347 384.120 M306.560 385.408 C 305.965 386.015,305.532 386.511,305.600 386.511 C 305.667 386.511,306.210 386.015,306.806 385.408 C 307.401 384.801,307.834 384.304,307.766 384.304 C 307.699 384.304,307.156 384.801,306.560 385.408 M347.026 386.634 C 346.431 387.241,345.998 387.738,346.066 387.738 C 346.133 387.738,346.676 387.241,347.272 386.634 C 347.867 386.027,348.300 385.530,348.232 385.530 C 348.165 385.530,347.622 386.027,347.026 386.634 M304.221 388.044 L 303.004 389.332 304.292 388.115 C 305.488 386.984,305.692 386.757,305.509 386.757 C 305.470 386.757,304.891 387.336,304.221 388.044 M344.687 389.270 L 343.470 390.558 344.758 389.341 C 345.466 388.672,346.045 388.092,346.045 388.053 C 346.045 387.870,345.818 388.074,344.687 389.270 M348.538 388.606 C 348.127 389.508,348.205 389.701,348.649 388.881 C 348.857 388.498,348.981 388.139,348.925 388.083 C 348.869 388.027,348.694 388.262,348.538 388.606 M301.901 390.558 C 301.305 391.165,300.873 391.662,300.940 391.662 C 301.008 391.662,301.550 391.165,302.146 390.558 C 302.742 389.951,303.174 389.454,303.106 389.454 C 303.039 389.454,302.496 389.951,301.901 390.558 M381.401 390.323 C 380.990 391.225,381.068 391.417,381.513 390.598 C 381.720 390.215,381.844 389.856,381.788 389.799 C 381.732 389.743,381.558 389.979,381.401 390.323 M342.367 391.784 C 341.771 392.391,341.339 392.888,341.406 392.888 C 341.474 392.888,342.016 392.391,342.612 391.784 C 343.208 391.177,343.640 390.681,343.572 390.681 C 343.505 390.681,342.962 391.177,342.367 391.784 M134.151 391.723 C 134.151 391.824,145.509 391.907,159.391 391.907 C 176.384 391.907,184.672 391.989,184.756 392.158 C 184.824 392.296,184.852 392.269,184.817 392.097 C 184.746 391.746,134.151 391.373,134.151 391.723 M47.984 391.845 C 47.881 392.012,72.842 392.011,106.928 391.843 C 114.010 391.808,103.670 391.753,83.951 391.721 C 64.232 391.688,48.046 391.744,47.984 391.845 M299.562 393.194 L 298.345 394.482 299.632 393.265 C 300.829 392.134,301.032 391.907,300.849 391.907 C 300.810 391.907,300.231 392.486,299.562 393.194 M340.028 394.421 L 338.811 395.708 340.098 394.491 C 341.295 393.360,341.498 393.133,341.315 393.133 C 341.276 393.133,340.697 393.712,340.028 394.421 M346.085 394.247 C 345.674 395.149,345.753 395.341,346.197 394.522 C 346.404 394.139,346.528 393.780,346.472 393.723 C 346.416 393.667,346.242 393.903,346.085 394.247 M297.241 395.708 C 296.645 396.315,296.213 396.812,296.280 396.812 C 296.348 396.812,296.890 396.315,297.486 395.708 C 298.082 395.101,298.514 394.605,298.447 394.605 C 298.379 394.605,297.837 395.101,297.241 395.708 M378.948 395.964 C 378.538 396.866,378.616 397.058,379.060 396.238 C 379.268 395.855,379.392 395.496,379.336 395.440 C 379.279 395.384,379.105 395.620,378.948 395.964 M337.707 396.934 C 337.111 397.541,336.679 398.038,336.746 398.038 C 336.814 398.038,337.356 397.541,337.952 396.934 C 338.548 396.327,338.980 395.831,338.913 395.831 C 338.845 395.831,338.303 396.327,337.707 396.934 M295.254 397.977 C 294.432 398.856,293.429 400.144,293.965 399.632 C 294.550 399.074,296.315 397.057,296.218 397.057 C 296.161 397.057,295.727 397.471,295.254 397.977 M334.273 400.736 C 333.030 402.085,332.067 403.188,332.135 403.188 C 332.202 403.188,333.275 402.085,334.519 400.736 C 335.762 399.387,336.725 398.283,336.657 398.283 C 336.590 398.283,335.517 399.387,334.273 400.736 M329.614 405.886 C 328.370 407.235,327.408 408.338,327.475 408.338 C 327.543 408.338,328.615 407.235,329.859 405.886 C 331.103 404.537,332.065 403.433,331.998 403.433 C 331.930 403.433,330.857 404.537,329.614 405.886 M291.194 408.952 C 291.195 410.031,291.238 410.442,291.290 409.865 C 291.341 409.288,291.341 408.405,291.288 407.903 C 291.235 407.401,291.193 407.872,291.194 408.952 M324.954 411.036 C 323.710 412.385,322.748 413.489,322.815 413.489 C 322.883 413.489,323.956 412.385,325.199 411.036 C 326.443 409.687,327.405 408.584,327.338 408.584 C 327.270 408.584,326.198 409.687,324.954 411.036 M340.235 411.159 C 340.237 411.968,340.283 412.270,340.337 411.829 C 340.392 411.388,340.391 410.726,340.335 410.357 C 340.279 409.989,340.234 410.349,340.235 411.159 M373.531 413.121 C 373.531 413.256,373.688 413.642,373.881 413.979 C 374.074 414.316,374.232 414.482,374.232 414.347 C 374.232 414.212,374.074 413.826,373.881 413.489 C 373.688 413.151,373.531 412.986,373.531 413.121 M322.152 414.204 C 321.905 414.477,321.772 414.915,321.835 415.246 L 321.944 415.819 321.978 415.225 C 321.996 414.898,322.194 414.429,322.417 414.182 C 322.640 413.936,322.768 413.734,322.700 413.734 C 322.633 413.734,322.386 413.946,322.152 414.204 M290.953 417.167 C 290.953 418.449,290.994 418.973,291.045 418.332 C 291.095 417.692,291.095 416.643,291.045 416.002 C 290.994 415.362,290.953 415.886,290.953 417.167 M375.005 416.309 C 375.005 416.444,375.217 416.941,375.475 417.413 C 375.734 417.885,375.945 418.161,375.945 418.026 C 375.945 417.891,375.734 417.394,375.475 416.922 C 375.217 416.450,375.005 416.174,375.005 416.309 M341.403 417.045 C 341.403 417.180,341.561 417.566,341.754 417.903 C 341.946 418.240,342.104 418.406,342.104 418.271 C 342.104 418.136,341.946 417.750,341.754 417.413 C 341.561 417.075,341.403 416.910,341.403 417.045 M376.477 419.497 C 376.477 419.632,376.688 420.129,376.947 420.601 C 377.205 421.073,377.417 421.349,377.417 421.214 C 377.417 421.079,377.205 420.582,376.947 420.110 C 376.688 419.638,376.477 419.362,376.477 419.497 M342.632 419.742 C 342.632 419.877,342.844 420.374,343.102 420.846 C 343.361 421.318,343.572 421.594,343.572 421.459 C 343.572 421.324,343.361 420.828,343.102 420.356 C 342.844 419.884,342.632 419.608,342.632 419.742 M321.609 422.072 C 321.609 423.354,321.650 423.878,321.701 423.237 C 321.751 422.597,321.751 421.548,321.701 420.907 C 321.650 420.267,321.609 420.791,321.609 422.072 M377.948 422.685 C 377.948 422.820,378.160 423.317,378.418 423.789 C 378.677 424.261,378.888 424.537,378.888 424.402 C 378.888 424.267,378.677 423.771,378.418 423.299 C 378.160 422.826,377.948 422.551,377.948 422.685 M344.346 423.421 C 344.346 423.556,344.504 423.942,344.697 424.280 C 344.889 424.617,345.047 424.782,345.047 424.647 C 345.047 424.513,344.889 424.126,344.697 423.789 C 344.504 423.452,344.346 423.286,344.346 423.421 M290.708 425.751 C 290.708 427.032,290.749 427.557,290.800 426.916 C 290.850 426.275,290.850 425.227,290.800 424.586 C 290.749 423.945,290.708 424.470,290.708 425.751 M379.420 425.874 C 379.420 426.009,379.631 426.505,379.890 426.977 C 380.148 427.449,380.360 427.725,380.360 427.590 C 380.360 427.456,380.148 426.959,379.890 426.487 C 379.631 426.015,379.420 425.739,379.420 425.874 M345.818 426.609 C 345.818 426.744,345.975 427.131,346.168 427.468 C 346.361 427.805,346.518 427.971,346.518 427.836 C 346.518 427.701,346.361 427.315,346.168 426.977 C 345.975 426.640,345.818 426.475,345.818 426.609 M321.362 430.533 C 321.362 431.747,321.403 432.275,321.455 431.706 C 321.506 431.137,321.507 430.143,321.456 429.499 C 321.405 428.854,321.363 429.319,321.362 430.533 M381.133 429.552 C 381.133 429.687,381.291 430.074,381.484 430.411 C 381.677 430.748,381.834 430.914,381.834 430.779 C 381.834 430.644,381.677 430.258,381.484 429.920 C 381.291 429.583,381.133 429.418,381.133 429.552 M347.289 429.798 C 347.289 429.933,347.447 430.319,347.639 430.656 C 347.832 430.993,347.990 431.159,347.990 431.024 C 347.990 430.889,347.832 430.503,347.639 430.166 C 347.447 429.828,347.289 429.663,347.289 429.798 M290.461 434.212 C 290.460 435.426,290.502 435.954,290.553 435.384 C 290.605 434.815,290.605 433.822,290.555 433.177 C 290.504 432.532,290.462 432.998,290.461 434.212 M382.605 432.741 C 382.605 432.876,382.762 433.262,382.955 433.599 C 383.148 433.936,383.306 434.102,383.306 433.967 C 383.306 433.832,383.148 433.446,382.955 433.109 C 382.762 432.771,382.605 432.606,382.605 432.741 M348.760 432.986 C 348.760 433.121,348.918 433.507,349.111 433.844 C 349.304 434.181,349.461 434.347,349.461 434.212 C 349.461 434.077,349.304 433.691,349.111 433.354 C 348.918 433.017,348.760 432.851,348.760 432.986 M384.076 435.929 C 384.076 436.064,384.234 436.450,384.427 436.787 C 384.620 437.124,384.777 437.290,384.777 437.155 C 384.777 437.020,384.620 436.634,384.427 436.297 C 384.234 435.960,384.076 435.794,384.076 435.929 M350.235 436.174 C 350.235 436.309,350.447 436.806,350.705 437.278 C 350.964 437.750,351.175 438.026,351.175 437.891 C 351.175 437.756,350.964 437.259,350.705 436.787 C 350.447 436.315,350.235 436.039,350.235 436.174 M321.118 438.994 C 321.118 440.276,321.160 440.800,321.210 440.159 C 321.261 439.519,321.261 438.470,321.210 437.830 C 321.160 437.189,321.118 437.713,321.118 438.994 M385.548 439.117 C 385.548 439.252,385.705 439.638,385.898 439.975 C 386.091 440.313,386.249 440.478,386.249 440.343 C 386.249 440.208,386.091 439.822,385.898 439.485 C 385.705 439.148,385.548 438.982,385.548 439.117 M351.707 439.362 C 351.707 439.497,351.918 439.994,352.177 440.466 C 352.435 440.938,352.647 441.214,352.647 441.079 C 352.647 440.944,352.435 440.448,352.177 439.975 C 351.918 439.503,351.707 439.227,351.707 439.362 M290.217 442.673 C 290.217 443.955,290.259 444.479,290.309 443.838 C 290.360 443.197,290.360 442.149,290.309 441.508 C 290.259 440.868,290.217 441.392,290.217 442.673 M283.791 444.702 L 280.274 448.437 283.842 444.797 L 287.410 441.157 287.494 443.080 L 287.578 445.003 287.627 442.980 C 287.689 440.419,287.923 440.315,283.791 444.702 M387.022 442.305 C 387.022 442.440,387.234 442.937,387.492 443.409 C 387.751 443.881,387.962 444.157,387.962 444.022 C 387.962 443.887,387.751 443.391,387.492 442.918 C 387.234 442.446,387.022 442.170,387.022 442.305 M353.178 442.551 C 353.178 442.685,353.390 443.182,353.648 443.654 C 353.907 444.126,354.118 444.402,354.118 444.267 C 354.118 444.132,353.907 443.636,353.648 443.164 C 353.390 442.692,353.178 442.416,353.178 442.551 M320.873 447.578 C 320.873 448.860,320.915 449.384,320.965 448.743 C 321.016 448.102,321.016 447.054,320.965 446.413 C 320.915 445.773,320.873 446.297,320.873 447.578 M388.494 445.494 C 388.494 445.628,388.705 446.125,388.964 446.597 C 389.222 447.069,389.434 447.345,389.434 447.210 C 389.434 447.075,389.222 446.579,388.964 446.107 C 388.705 445.635,388.494 445.359,388.494 445.494 M354.650 445.739 C 354.650 445.874,354.861 446.370,355.120 446.842 C 355.378 447.315,355.589 447.590,355.589 447.456 C 355.589 447.321,355.378 446.824,355.120 446.352 C 354.861 445.880,354.650 445.604,354.650 445.739 M274.923 453.955 C 272.059 456.922,269.770 459.350,269.838 459.350 C 269.905 459.350,272.304 456.922,275.169 453.955 C 278.033 450.987,280.322 448.559,280.254 448.559 C 280.187 448.559,277.788 450.987,274.923 453.955 M389.965 448.682 C 389.965 448.817,390.177 449.313,390.435 449.785 C 390.694 450.258,390.905 450.533,390.905 450.399 C 390.905 450.264,390.694 449.767,390.435 449.295 C 390.177 448.823,389.965 448.547,389.965 448.682 M287.274 451.257 C 287.274 452.538,287.316 453.063,287.366 452.422 C 287.417 451.781,287.417 450.733,287.366 450.092 C 287.316 449.451,287.274 449.975,287.274 451.257 M289.972 451.257 C 289.972 452.538,290.013 453.063,290.064 452.422 C 290.114 451.781,290.114 450.733,290.064 450.092 C 290.013 449.451,289.972 449.975,289.972 451.257 M356.363 449.418 C 356.363 449.552,356.521 449.939,356.714 450.276 C 356.906 450.613,357.064 450.779,357.064 450.644 C 357.064 450.509,356.906 450.123,356.714 449.785 C 356.521 449.448,356.363 449.283,356.363 449.418 M391.437 451.870 C 391.437 452.005,391.648 452.502,391.907 452.974 C 392.165 453.446,392.377 453.722,392.377 453.587 C 392.377 453.452,392.165 452.955,391.907 452.483 C 391.648 452.011,391.437 451.735,391.437 451.870 M357.835 452.606 C 357.835 452.741,357.992 453.127,358.185 453.464 C 358.378 453.801,358.536 453.967,358.536 453.832 C 358.536 453.697,358.378 453.311,358.185 452.974 C 357.992 452.636,357.835 452.471,357.835 452.606 M52.932 453.893 C 63.632 453.929,81.069 453.929,91.681 453.893 C 102.293 453.858,93.538 453.829,72.226 453.829 C 50.914 453.829,42.231 453.858,52.932 453.893 M143.899 453.893 C 154.050 453.929,170.659 453.929,180.809 453.893 C 190.960 453.858,182.655 453.829,162.354 453.829 C 142.054 453.829,133.749 453.858,143.899 453.893 M320.627 456.039 C 320.626 457.253,320.667 457.781,320.719 457.212 C 320.770 456.642,320.771 455.649,320.720 455.004 C 320.669 454.360,320.627 454.825,320.627 456.039 M393.150 455.549 C 393.150 455.684,393.308 456.070,393.501 456.407 C 393.694 456.744,393.851 456.910,393.851 456.775 C 393.851 456.640,393.694 456.254,393.501 455.917 C 393.308 455.579,393.150 455.414,393.150 455.549 M359.306 455.794 C 359.306 455.929,359.464 456.315,359.657 456.652 C 359.849 456.990,360.007 457.155,360.007 457.020 C 360.007 456.885,359.849 456.499,359.657 456.162 C 359.464 455.825,359.306 455.659,359.306 455.794 M287.014 458.860 C 287.014 459.601,287.060 459.905,287.116 459.534 C 287.172 459.163,287.172 458.556,287.116 458.185 C 287.060 457.814,287.014 458.118,287.014 458.860 M289.725 459.718 C 289.725 460.932,289.766 461.459,289.817 460.890 C 289.869 460.321,289.870 459.328,289.819 458.683 C 289.768 458.038,289.726 458.504,289.725 459.718 M394.622 458.737 C 394.622 458.872,394.780 459.258,394.972 459.595 C 395.165 459.933,395.323 460.098,395.323 459.963 C 395.323 459.828,395.165 459.442,394.972 459.105 C 394.780 458.768,394.622 458.602,394.622 458.737 M360.778 458.982 C 360.778 459.117,360.935 459.503,361.128 459.841 C 361.321 460.178,361.479 460.343,361.479 460.208 C 361.479 460.074,361.321 459.687,361.128 459.350 C 360.935 459.013,360.778 458.847,360.778 458.982 M268.142 461.071 C 267.313 461.878,266.709 462.538,266.801 462.538 C 266.893 462.538,267.623 461.876,268.424 461.067 C 270.309 459.162,270.102 459.166,268.142 461.071 M396.093 461.925 C 396.093 462.060,396.251 462.446,396.444 462.784 C 396.637 463.121,396.794 463.286,396.794 463.151 C 396.794 463.017,396.637 462.630,396.444 462.293 C 396.251 461.956,396.093 461.790,396.093 461.925 M362.252 462.170 C 362.252 462.305,362.464 462.802,362.722 463.274 C 362.981 463.746,363.192 464.022,363.192 463.887 C 363.192 463.752,362.981 463.256,362.722 462.784 C 362.464 462.311,362.252 462.036,362.252 462.170 M320.383 464.500 C 320.383 465.782,320.424 466.306,320.475 465.665 C 320.525 465.025,320.525 463.976,320.475 463.335 C 320.424 462.695,320.383 463.219,320.383 464.500 M397.568 465.113 C 397.568 465.248,397.780 465.745,398.038 466.217 C 398.296 466.689,398.508 466.965,398.508 466.830 C 398.508 466.695,398.296 466.199,398.038 465.727 C 397.780 465.254,397.568 464.979,397.568 465.113 M363.724 465.359 C 363.724 465.494,363.935 465.990,364.194 466.462 C 364.452 466.934,364.664 467.210,364.664 467.075 C 364.664 466.941,364.452 466.444,364.194 465.972 C 363.935 465.500,363.724 465.224,363.724 465.359 M289.481 468.179 C 289.481 469.460,289.523 469.985,289.573 469.344 C 289.624 468.703,289.624 467.655,289.573 467.014 C 289.523 466.373,289.481 466.898,289.481 468.179 M218.026 467.014 C 218.026 467.115,228.648 467.172,241.631 467.140 C 254.614 467.108,261.429 467.053,256.775 467.018 C 234.574 466.849,218.026 466.848,218.026 467.014 M123.528 467.782 C 123.435 468.023,123.367 468.403,123.375 468.628 C 123.386 468.899,123.471 468.837,123.628 468.445 C 123.758 468.120,123.826 467.739,123.780 467.599 C 123.733 467.460,123.620 467.542,123.528 467.782 M365.195 468.547 C 365.195 468.682,365.407 469.178,365.665 469.651 C 365.924 470.123,366.135 470.399,366.135 470.264 C 366.135 470.129,365.924 469.632,365.665 469.160 C 365.407 468.688,365.195 468.412,365.195 468.547 M320.128 472.348 C 320.128 473.225,320.172 473.584,320.226 473.145 C 320.281 472.707,320.281 471.990,320.226 471.551 C 320.172 471.113,320.128 471.471,320.128 472.348 M366.667 471.735 C 366.667 471.870,366.878 472.367,367.137 472.839 C 367.395 473.311,367.607 473.587,367.607 473.452 C 367.607 473.317,367.395 472.820,367.137 472.348 C 366.878 471.876,366.667 471.600,366.667 471.735 M399.837 473.329 C 399.837 474.341,399.880 474.755,399.933 474.249 C 399.986 473.743,399.986 472.915,399.933 472.410 C 399.880 471.904,399.837 472.318,399.837 473.329 M368.380 475.414 C 368.380 475.549,368.538 475.935,368.731 476.272 C 368.924 476.609,369.081 476.775,369.081 476.640 C 369.081 476.505,368.924 476.119,368.731 475.782 C 368.538 475.445,368.380 475.279,368.380 475.414 M369.852 478.602 C 369.852 478.737,370.010 479.123,370.202 479.460 C 370.395 479.798,370.553 479.963,370.553 479.828 C 370.553 479.693,370.395 479.307,370.202 478.970 C 370.010 478.633,369.852 478.467,369.852 478.602 M293.807 483.017 C 294.676 483.893,295.443 484.611,295.510 484.611 C 295.577 484.611,294.922 483.893,294.053 483.017 C 293.184 482.140,292.418 481.422,292.350 481.422 C 292.283 481.422,292.939 482.140,293.807 483.017 M315.503 483.200 L 314.286 484.488 315.573 483.271 C 316.281 482.602,316.861 482.022,316.861 481.983 C 316.861 481.800,316.634 482.004,315.503 483.200 M372.042 482.725 C 372.042 482.768,372.400 483.126,372.839 483.522 L 373.636 484.243 372.915 483.446 C 372.244 482.703,372.042 482.536,372.042 482.725 M395.208 484.427 L 393.991 485.714 395.279 484.497 C 395.987 483.828,396.567 483.249,396.567 483.210 C 396.567 483.027,396.339 483.230,395.208 484.427 M373.758 484.442 C 373.758 484.484,374.117 484.843,374.555 485.239 L 375.353 485.960 374.632 485.162 C 373.961 484.420,373.758 484.253,373.758 484.442 M311.465 485.960 C 310.858 486.285,310.449 486.555,310.555 486.562 C 310.816 486.576,312.692 485.613,312.692 485.464 C 312.692 485.302,312.702 485.297,311.465 485.960 M391.171 487.186 C 390.564 487.511,390.155 487.782,390.261 487.788 C 390.522 487.803,392.397 486.839,392.397 486.690 C 392.397 486.528,392.407 486.524,391.171 487.186 M104.476 498.712 C 104.476 499.050,104.571 499.326,104.687 499.326 C 104.803 499.326,104.846 499.050,104.781 498.712 C 104.717 498.375,104.622 498.099,104.570 498.099 C 104.518 498.099,104.476 498.375,104.476 498.712 M114.531 498.345 L 113.427 498.516 114.455 498.553 C 115.020 498.573,115.551 498.479,115.635 498.345 C 115.718 498.210,115.752 498.116,115.710 498.136 C 115.669 498.156,115.138 498.250,114.531 498.345 M110.549 498.763 C 110.854 498.822,111.295 498.820,111.530 498.758 C 111.764 498.697,111.514 498.649,110.975 498.652 C 110.435 498.654,110.243 498.705,110.549 498.763 M121.339 498.763 C 121.645 498.822,122.086 498.820,122.320 498.758 C 122.555 498.697,122.305 498.649,121.766 498.652 C 121.226 498.654,121.034 498.705,121.339 498.763 M106.867 499.008 C 107.170 499.067,107.667 499.067,107.971 499.008 C 108.274 498.950,108.026 498.902,107.419 498.902 C 106.812 498.902,106.563 498.950,106.867 499.008 M124.770 499.008 C 125.074 499.067,125.570 499.067,125.874 499.008 C 126.177 498.950,125.929 498.902,125.322 498.902 C 124.715 498.902,124.467 498.950,124.770 499.008 " stroke="none" fill="#825421" fill-rule="evenodd"></path><path id="path2" d="M316.483 10.546 C 316.483 16.413,316.515 18.814,316.554 15.880 C 316.593 12.946,316.593 8.145,316.554 5.212 C 316.515 2.278,316.483 4.678,316.483 10.546 M155.549 74.234 C 155.785 74.296,156.171 74.296,156.407 74.234 C 156.643 74.172,156.450 74.122,155.978 74.122 C 155.506 74.122,155.313 74.172,155.549 74.234 M297.910 206.676 C 298.345 206.730,299.118 206.731,299.627 206.678 C 300.135 206.625,299.779 206.581,298.835 206.580 C 297.891 206.578,297.475 206.622,297.910 206.676 M330.043 209.865 C 330.481 209.919,331.199 209.919,331.637 209.865 C 332.075 209.810,331.717 209.766,330.840 209.766 C 329.963 209.766,329.605 209.810,330.043 209.865 M303.207 237.278 C 303.208 238.222,303.253 238.578,303.306 238.069 C 303.359 237.560,303.358 236.788,303.304 236.353 C 303.250 235.917,303.206 236.334,303.207 237.278 M170.883 245.673 C 171.460 245.725,172.343 245.725,172.845 245.672 C 173.347 245.619,172.876 245.577,171.796 245.578 C 170.717 245.579,170.306 245.622,170.883 245.673 M157.076 258.923 L 168.229 258.987 168.305 263.460 L 168.381 267.934 168.372 263.397 L 168.363 258.860 157.143 258.860 L 145.923 258.860 157.076 258.923 M54.025 366.033 C 54.027 366.708,54.074 366.954,54.131 366.582 C 54.187 366.209,54.185 365.657,54.127 365.355 C 54.069 365.054,54.023 365.359,54.025 366.033 M67.118 385.714 C 76.853 385.750,92.855 385.750,102.679 385.714 C 112.502 385.679,104.537 385.650,84.979 385.650 C 65.420 385.650,57.383 385.679,67.118 385.714 M147.192 385.714 C 153.757 385.751,164.573 385.751,171.226 385.714 C 177.879 385.678,172.508 385.648,159.289 385.648 C 146.070 385.648,140.626 385.678,147.192 385.714 M102.518 395.769 C 102.520 396.070,102.579 396.108,102.713 395.897 C 102.852 395.678,104.337 395.576,108.166 395.524 L 113.427 395.453 107.971 395.396 C 102.915 395.344,102.514 395.372,102.518 395.769 M291.177 411.772 C 291.177 412.379,291.224 412.627,291.283 412.324 C 291.341 412.020,291.341 411.524,291.283 411.220 C 291.224 410.917,291.177 411.165,291.177 411.772 M321.587 418.884 C 321.587 419.491,321.635 419.739,321.694 419.436 C 321.752 419.132,321.752 418.636,321.694 418.332 C 321.635 418.029,321.587 418.277,321.587 418.884 M290.931 420.356 C 290.931 420.963,290.979 421.211,291.038 420.907 C 291.096 420.604,291.096 420.107,291.038 419.804 C 290.979 419.500,290.931 419.749,290.931 420.356 M321.345 427.345 C 321.347 428.020,321.395 428.266,321.451 427.894 C 321.508 427.521,321.506 426.969,321.448 426.667 C 321.390 426.366,321.344 426.671,321.345 427.345 M290.686 428.939 C 290.686 429.546,290.734 429.795,290.792 429.491 C 290.851 429.188,290.851 428.691,290.792 428.387 C 290.734 428.084,290.686 428.332,290.686 428.939 M321.097 435.806 C 321.097 436.413,321.145 436.662,321.203 436.358 C 321.262 436.055,321.262 435.558,321.203 435.254 C 321.145 434.951,321.097 435.199,321.097 435.806 M290.444 437.400 C 290.446 438.075,290.494 438.322,290.550 437.949 C 290.606 437.576,290.605 437.024,290.547 436.723 C 290.488 436.421,290.442 436.726,290.444 437.400 M320.852 444.390 C 320.852 444.997,320.899 445.245,320.958 444.942 C 321.016 444.638,321.016 444.142,320.958 443.838 C 320.899 443.535,320.852 443.783,320.852 444.390 M290.196 445.861 C 290.196 446.468,290.243 446.717,290.302 446.413 C 290.360 446.110,290.360 445.613,290.302 445.310 C 290.243 445.006,290.196 445.254,290.196 445.861 M287.253 448.069 C 287.253 448.676,287.300 448.924,287.359 448.620 C 287.417 448.317,287.417 447.820,287.359 447.517 C 287.300 447.213,287.253 447.462,287.253 448.069 M54.280 447.762 C 64.913 447.797,82.240 447.797,92.784 447.762 C 103.329 447.727,94.629 447.698,73.452 447.698 C 52.275 447.698,43.648 447.727,54.280 447.762 M144.267 447.762 C 154.080 447.798,170.138 447.798,179.951 447.762 C 189.764 447.727,181.735 447.698,162.109 447.698 C 142.483 447.698,134.454 447.727,144.267 447.762 M320.610 452.851 C 320.612 453.525,320.659 453.772,320.716 453.399 C 320.772 453.027,320.770 452.475,320.712 452.173 C 320.654 451.872,320.608 452.177,320.610 452.851 M289.950 454.445 C 289.950 455.052,289.998 455.300,290.057 454.997 C 290.115 454.693,290.115 454.197,290.057 453.893 C 289.998 453.590,289.950 453.838,289.950 454.445 M287.007 456.652 C 287.007 457.259,287.055 457.508,287.114 457.204 C 287.172 456.901,287.172 456.404,287.114 456.101 C 287.055 455.797,287.007 456.045,287.007 456.652 M320.361 461.312 C 320.361 461.919,320.409 462.167,320.467 461.864 C 320.526 461.560,320.526 461.064,320.467 460.760 C 320.409 460.457,320.361 460.705,320.361 461.312 M289.708 462.906 C 289.710 463.581,289.758 463.827,289.814 463.455 C 289.871 463.082,289.869 462.530,289.811 462.228 C 289.753 461.927,289.707 462.232,289.708 462.906 M320.116 469.896 C 320.116 470.503,320.164 470.751,320.222 470.448 C 320.281 470.144,320.281 469.647,320.222 469.344 C 320.164 469.040,320.116 469.289,320.116 469.896 M289.472 471.858 C 289.472 472.735,289.516 473.093,289.570 472.655 C 289.625 472.216,289.625 471.499,289.570 471.061 C 289.516 470.622,289.472 470.981,289.472 471.858 " stroke="none" fill="#9c6424" fill-rule="evenodd"></path><path id="path3" d="M104.342 89.332 L 103.372 90.374 104.414 89.405 C 105.384 88.503,105.569 88.289,105.384 88.289 C 105.344 88.289,104.875 88.758,104.342 89.332 M311.220 256.898 C 311.678 257.370,312.107 257.756,312.175 257.756 C 312.242 257.756,311.923 257.370,311.465 256.898 C 311.008 256.426,310.578 256.039,310.511 256.039 C 310.443 256.039,310.763 256.426,311.220 256.898 " stroke="none" fill="#a46c2c" fill-rule="evenodd"></path><path id="path4" d="M276.993 452.054 L 276.272 452.851 277.069 452.131 C 277.812 451.459,277.979 451.257,277.790 451.257 C 277.747 451.257,277.389 451.616,276.993 452.054 " stroke="none" fill="#b4742c" fill-rule="evenodd"></path></g></svg>