<svg id="svg" version="1.1" xmlns="http://www.w3.org/2000/svg" xmlns:xlink="http://www.w3.org/1999/xlink" width="400" height="400" viewBox="0, 0, 400,400"><g id="svgg"><path id="path0" d="M90.306 31.630 C 89.649 32.011,89.612 40.283,89.603 185.686 C 89.598 270.195,89.545 339.388,89.485 339.448 C 89.425 339.508,78.199 339.588,64.537 339.625 L 39.698 339.692 39.673 353.675 C 39.659 361.365,39.746 367.914,39.866 368.229 C 40.165 369.008,117.542 369.098,118.320 368.320 C 118.692 367.948,118.800 333.147,118.800 214.120 L 118.800 60.400 200.000 60.400 L 281.200 60.400 281.230 212.700 C 281.247 296.465,281.292 365.810,281.330 366.800 L 281.400 368.600 320.000 368.710 C 341.230 368.770,359.005 368.722,359.500 368.602 L 360.400 368.385 360.400 354.078 L 360.400 339.771 359.000 339.771 C 358.230 339.771,357.597 339.958,357.594 340.186 C 357.591 340.414,357.435 340.360,357.249 340.066 C 357.063 339.772,356.796 339.547,356.655 339.566 C 356.515 339.585,346.050 339.600,333.400 339.600 L 310.400 339.600 310.400 185.647 L 310.400 31.693 309.500 31.454 C 307.867 31.019,91.059 31.194,90.306 31.630 M127.200 218.885 L 127.200 368.858 145.233 368.729 C 165.406 368.585,164.400 368.742,164.400 365.724 L 164.400 364.400 178.371 364.400 C 193.874 364.400,193.600 364.447,193.600 361.791 L 193.600 360.439 207.633 360.319 C 223.189 360.187,222.800 360.259,222.800 357.524 L 222.800 356.400 230.300 356.375 C 234.425 356.362,240.551 356.355,243.914 356.360 C 247.276 356.365,250.470 356.201,251.012 355.996 L 251.995 355.622 251.999 220.611 L 252.002 85.600 250.001 85.600 C 247.907 85.600,247.834 85.521,247.958 83.400 C 248.081 81.320,249.754 81.455,221.100 81.219 C 218.935 81.201,218.800 81.143,218.800 80.226 C 218.800 79.690,218.624 78.790,218.410 78.226 L 218.020 77.200 203.810 77.200 L 189.600 77.200 189.595 76.100 C 189.585 74.131,189.161 73.217,188.255 73.208 C 167.345 73.008,156.676 72.809,156.482 72.615 C 156.348 72.481,156.279 71.762,156.330 71.016 C 156.466 68.998,156.507 69.003,141.300 68.956 L 127.200 68.913 127.200 218.885 M235.600 220.800 L 235.600 227.200 233.600 227.200 C 232.284 227.200,231.589 227.371,231.568 227.700 C 231.543 228.100,231.496 228.100,231.335 227.700 C 231.212 227.395,230.366 227.200,229.167 227.200 L 227.200 227.200 227.150 225.800 C 227.051 223.032,227.020 223.008,223.466 222.966 C 221.890 222.948,217.405 222.903,213.500 222.866 L 206.400 222.800 206.400 220.800 L 206.400 218.800 216.200 218.750 C 221.590 218.722,226.225 218.678,226.500 218.650 C 227.037 218.596,227.074 218.446,227.150 216.000 L 227.200 214.400 231.400 214.400 L 235.600 214.400 235.600 220.800 " stroke="none" fill="#c47c34" fill-rule="evenodd"></path><path id="path1" d="M144.100 69.076 C 144.485 69.176,145.115 69.176,145.500 69.076 C 145.885 68.975,145.570 68.893,144.800 68.893 C 144.030 68.893,143.715 68.975,144.100 69.076 M174.915 73.096 C 176.188 73.176,178.168 73.175,179.315 73.094 C 180.462 73.014,179.420 72.949,177.000 72.950 C 174.580 72.951,173.642 73.016,174.915 73.096 M224.100 81.476 C 224.485 81.576,225.115 81.576,225.500 81.476 C 225.885 81.375,225.570 81.293,224.800 81.293 C 224.030 81.293,223.715 81.375,224.100 81.476 M240.700 81.493 C 241.635 81.577,243.165 81.577,244.100 81.493 C 245.035 81.409,244.270 81.340,242.400 81.340 C 240.530 81.340,239.765 81.409,240.700 81.493 " stroke="none" fill="#683c1c" fill-rule="evenodd"></path><path id="path2" d="M144.100 69.076 C 144.485 69.176,145.115 69.176,145.500 69.076 C 145.885 68.975,145.570 68.893,144.800 68.893 C 144.030 68.893,143.715 68.975,144.100 69.076 M174.915 73.096 C 176.188 73.176,178.168 73.175,179.315 73.094 C 180.462 73.014,179.420 72.949,177.000 72.950 C 174.580 72.951,173.642 73.016,174.915 73.096 M224.100 81.476 C 224.485 81.576,225.115 81.576,225.500 81.476 C 225.885 81.375,225.570 81.293,224.800 81.293 C 224.030 81.293,223.715 81.375,224.100 81.476 M240.700 81.493 C 241.635 81.577,243.165 81.577,244.100 81.493 C 245.035 81.409,244.270 81.340,242.400 81.340 C 240.530 81.340,239.765 81.409,240.700 81.493 " stroke="none" fill="#683c1c" fill-rule="evenodd"></path><path id="path3" d="M144.100 69.076 C 144.485 69.176,145.115 69.176,145.500 69.076 C 145.885 68.975,145.570 68.893,144.800 68.893 C 144.030 68.893,143.715 68.975,144.100 69.076 M174.915 73.096 C 176.188 73.176,178.168 73.175,179.315 73.094 C 180.462 73.014,179.420 72.949,177.000 72.950 C 174.580 72.951,173.642 73.016,174.915 73.096 M224.100 81.476 C 224.485 81.576,225.115 81.576,225.500 81.476 C 225.885 81.375,225.570 81.293,224.800 81.293 C 224.030 81.293,223.715 81.375,224.100 81.476 M240.700 81.493 C 241.635 81.577,243.165 81.577,244.100 81.493 C 245.035 81.409,244.270 81.340,242.400 81.340 C 240.530 81.340,239.765 81.409,240.700 81.493 " stroke="none" fill="#683c1c" fill-rule="evenodd"></path><path id="path4" d="M144.100 69.076 C 144.485 69.176,145.115 69.176,145.500 69.076 C 145.885 68.975,145.570 68.893,144.800 68.893 C 144.030 68.893,143.715 68.975,144.100 69.076 M174.915 73.096 C 176.188 73.176,178.168 73.175,179.315 73.094 C 180.462 73.014,179.420 72.949,177.000 72.950 C 174.580 72.951,173.642 73.016,174.915 73.096 M224.100 81.476 C 224.485 81.576,225.115 81.576,225.500 81.476 C 225.885 81.375,225.570 81.293,224.800 81.293 C 224.030 81.293,223.715 81.375,224.100 81.476 M240.700 81.493 C 241.635 81.577,243.165 81.577,244.100 81.493 C 245.035 81.409,244.270 81.340,242.400 81.340 C 240.530 81.340,239.765 81.409,240.700 81.493 " stroke="none" fill="#683c1c" fill-rule="evenodd"></path></g></svg>