<?xml version="1.0" standalone="no"?>
<!DOCTYPE svg PUBLIC "-//W3C//DTD SVG 20010904//EN"
 "http://www.w3.org/TR/2001/REC-SVG-20010904/DTD/svg10.dtd">
<svg version="1.0" xmlns="http://www.w3.org/2000/svg"
 width="202.000000pt" height="202.000000pt" viewBox="0 0 202.000000 202.000000"
 preserveAspectRatio="xMidYMid meet">
<metadata>
Created by potrace 1.14, written by Peter Selinger 2001-2017
</metadata>
<g transform="translate(0.000000,202.000000) scale(0.100000,-0.100000)"
fill="#000000" stroke="none">
<path d="M751 1926 c-29 -10 -37 -22 -72 -111 -22 -55 -46 -113 -53 -130 -8
-16 -17 -41 -21 -55 -4 -14 -12 -30 -17 -36 -5 -7 -10 -20 -12 -30 -4 -16 -96
-252 -126 -321 -6 -13 -14 -33 -20 -45 -5 -13 -30 -77 -55 -143 -25 -66 -52
-133 -59 -150 -39 -88 -149 -372 -149 -385 0 -34 4 -40 23 -40 10 0 26 10 35
23 28 38 250 384 283 440 7 12 30 48 50 80 20 31 75 117 121 190 47 72 128
199 180 280 53 82 104 161 113 175 55 87 60 120 26 152 -19 18 -77 50 -98 54
-3 1 -9 4 -15 8 -5 3 -31 17 -56 30 -40 21 -51 23 -78 14z"/>
<path d="M1016 1614 c-9 -8 -16 -18 -16 -21 0 -5 75 -149 170 -328 49 -92 193
-369 244 -470 23 -44 43 -82 46 -85 3 -3 24 -43 48 -90 80 -157 168 -325 182
-347 18 -28 61 -38 92 -22 62 33 189 123 199 141 13 24 6 55 -20 88 -11 14
-52 66 -91 115 -40 50 -79 99 -88 110 -9 11 -54 67 -100 125 -45 58 -88 112
-95 120 -7 8 -26 33 -42 55 -16 22 -40 50 -52 62 -13 12 -23 24 -23 27 0 3 -9
16 -19 28 -11 13 -58 73 -105 133 -48 61 -93 117 -100 126 -8 10 -38 48 -68
85 -29 38 -56 71 -60 72 -5 2 -8 7 -8 12 0 11 -62 80 -71 80 -4 0 -15 -7 -23
-16z"/>
<path d="M882 1024 c-16 -6 -33 -20 -37 -30 -15 -34 -13 -276 2 -307 29 -59
148 -65 189 -8 8 10 12 67 12 158 1 134 -1 145 -22 169 -17 21 -32 27 -69 29
-25 1 -59 -4 -75 -11z"/>
<path d="M35 410 c-15 -17 -19 -34 -17 -78 4 -118 14 -197 25 -210 14 -17 49
-31 60 -25 5 3 29 7 55 8 49 4 58 5 182 26 41 7 78 12 81 11 4 -1 35 3 70 9
91 15 98 16 159 24 30 3 78 10 105 15 43 8 114 18 250 36 33 4 85 12 125 19
14 2 45 7 70 9 25 3 61 8 80 11 19 4 46 8 60 10 164 22 228 32 242 41 16 10 9
54 -9 55 -35 3 -361 17 -553 24 -106 4 -220 9 -470 20 -52 3 -185 7 -295 11
-196 6 -200 6 -220 -16z"/>
</g>
</svg>
