<svg xmlns="http://www.w3.org/2000/svg" viewBox="0 0 185.63 217.11"><title>Occupation Asset 2</title><g id="Layer_2" data-name="Layer 2"><g id="Layer_1-2" data-name="Layer 1"><rect x="170.63" y="91.32" width="15" height="123.52"/><path d="M108.64,81.87a10.21,10.21,0,0,1-4,4.52l5.9-.27-1.54-5C108.85,81.36,108.76,81.62,108.64,81.87Z"/><path d="M5.19,197.33A12.5,12.5,0,1,0,26,211.14c14-21.16,18.43-40.58,18.5-56.58l-29.61-24C20.68,144.9,24.17,168.68,5.19,197.33Z"/><path d="M32.52,56a10.3,10.3,0,0,1,19-1.29l10.41,21L65,79.28,86.9,71.17l-7.44.33L56.32,44.92a7.32,7.32,0,0,0-1.11-1.05,10,10,0,0,0-1.71-1.4c-7.41-4.75-20.62-4.31-30.07,8C10.54,67.37,5,79.34.3,101.22A24.31,24.31,0,0,0,1.24,113a12.4,12.4,0,0,0,4.27,6.83l4.61,3.74,40.6,33,16.4,51.77A12.5,12.5,0,1,0,91,200.83L73.43,145.5a12.54,12.54,0,0,0-4-5.93L34.29,111h0c2.18-8.35,6-16.7,10-24.4L33.05,63.89A10.22,10.22,0,0,1,32.52,56Z"/><path d="M112.25,21.21c.76-3.88-8.07-8.88-19.72-11.16l-1.19-.21A22.5,22.5,0,1,0,94,29.76a61.32,61.32,0,0,1-6.12-1.88C77,23.91,69.1,17.78,70.1,14c.83,3.68,9.07,8,19.67,10.08,8,1.57,15.26,1.44,19.26-.05C110.86,23.39,112,22.43,112.25,21.21Z"/><path d="M96.68,89.52l-1.37,6.22,2,.45s1.53-4,3.44-8.2Z"/><path d="M111,75.52c.67-.35,1.31-.65,1.9-.91l49.48,10.84.88-4,17.33,3.44.37-1.67-17.18-4.12.91-4.16-61.8-13.54-1,4.61L76.7,60.47a2.76,2.76,0,0,1-1-3c.54-2.45,1.82-5,3.37-4.61l.42-2c-2.55-.56-4.8,1.85-5.74,6.14a4.76,4.76,0,0,0,2,5.19l.13.08,22.6,4.95c.24,0,.49,0,.74,0A10.35,10.35,0,0,1,108.94,74a10.86,10.86,0,0,1,.56,2.35l.42-.26,6.41,20.12L117,96l.44-.14L114.26,86l6.55-.29a8,8,0,0,0,7.32-5.75l-17-3.85Z"/><path d="M96.5,70.06,62.75,82.57,49.45,55.76a8,8,0,0,0-14.33,7.11l16.5,33.25a8,8,0,0,0,9.94,3.95l40.5-15a8,8,0,0,0-5.56-15Z"/></g></g></svg>